<svg xmlns="http://www.w3.org/2000/svg" viewBox="0 0 36 24" width="36" height="24">
  <rect width="36" height="8" fill="#FF9933"/>
  <rect y="8" width="36" height="8" fill="#fff"/>
  <rect y="16" width="36" height="8" fill="#138808"/>
  <circle cx="18" cy="12" r="3.5" fill="none" stroke="#000080" stroke-width="0.5"/>
  <circle cx="18" cy="12" r="0.6" fill="#000080"/>
  <g stroke="#000080" stroke-width="0.35">
    <line x1="18" y1="8.7" x2="18" y2="9.5" />
    <line x1="18" y1="14.5" x2="18" y2="15.3" />
    <line x1="14.7" y1="12" x2="15.5" y2="12" />
    <line x1="20.5" y1="12" x2="21.3" y2="12" />
    <line x1="15.67" y1="9.67" x2="16.23" y2="10.23" />
    <line x1="19.77" y1="13.77" x2="20.33" y2="14.33" />
    <line x1="20.33" y1="9.67" x2="19.77" y2="10.23" />
    <line x1="15.67" y1="14.33" x2="16.23" y2="13.77" />
    <line x1="16.3" y1="8.93" x2="16.65" y2="9.63" />
    <line x1="19.35" y1="14.37" x2="19.7" y2="15.07" />
    <line x1="21.07" y1="10.3" x2="20.37" y2="10.65" />
    <line x1="15.63" y1="13.35" x2="14.93" y2="13.7" />
    <line x1="19.7" y1="8.93" x2="19.35" y2="9.63" />
    <line x1="16.65" y1="14.37" x2="16.3" y2="15.07" />
    <line x1="21.07" y1="13.7" x2="20.37" y2="13.35" />
    <line x1="15.63" y1="10.65" x2="14.93" y2="10.3" />
    <line x1="14.93" y1="11" x2="15.63" y2="11.35" />
    <line x1="20.37" y1="12.65" x2="21.07" y2="13" />
    <line x1="17" y1="14.37" x2="17.35" y2="15.07" />
    <line x1="18.65" y1="8.93" x2="19" y2="9.63" />
    <line x1="14.93" y1="13" x2="15.63" y2="12.65" />
    <line x1="20.37" y1="11.35" x2="21.07" y2="11" />
    <line x1="19" y1="14.37" x2="18.65" y2="15.07" />
    <line x1="17.35" y1="8.93" x2="17" y2="9.63" />
  </g>
</svg>
